<mxfile host="Electron" agent="Mozilla/5.0 (Windows NT 10.0; Win64; x64) AppleWebKit/537.36 (KHTML, like Gecko) draw.io/24.7.17 Chrome/128.0.6613.36 Electron/32.0.1 Safari/537.36" version="24.7.17">
  <diagram name="第 1 页" id="qVxpE6IaB7789sl1sPkd">
    <mxGraphModel dx="714" dy="844" grid="1" gridSize="10" guides="1" tooltips="1" connect="1" arrows="1" fold="1" page="1" pageScale="1" pageWidth="827" pageHeight="1169" math="0" shadow="0">
      <root>
        <mxCell id="0" />
        <mxCell id="1" parent="0" />
        <mxCell id="KvOHSb_-tOUAyhextP7V-1" value="分解物料需求" style="shape=note2;boundedLbl=1;whiteSpace=wrap;html=1;size=25;verticalAlign=top;align=center;" vertex="1" parent="1">
          <mxGeometry x="200" y="110" width="80" height="70" as="geometry" />
        </mxCell>
        <mxCell id="KvOHSb_-tOUAyhextP7V-31" style="edgeStyle=orthogonalEdgeStyle;rounded=0;orthogonalLoop=1;jettySize=auto;html=1;entryX=1;entryY=0.5;entryDx=0;entryDy=0;" edge="1" parent="1" source="KvOHSb_-tOUAyhextP7V-2" target="KvOHSb_-tOUAyhextP7V-6">
          <mxGeometry relative="1" as="geometry" />
        </mxCell>
        <mxCell id="KvOHSb_-tOUAyhextP7V-2" value="待生产" style="rounded=1;whiteSpace=wrap;html=1;" vertex="1" parent="1">
          <mxGeometry x="480" y="360" width="80" height="60" as="geometry" />
        </mxCell>
        <mxCell id="KvOHSb_-tOUAyhextP7V-30" style="edgeStyle=orthogonalEdgeStyle;rounded=0;orthogonalLoop=1;jettySize=auto;html=1;entryX=0;entryY=0.5;entryDx=0;entryDy=0;" edge="1" parent="1" source="KvOHSb_-tOUAyhextP7V-3" target="KvOHSb_-tOUAyhextP7V-6">
          <mxGeometry relative="1" as="geometry" />
        </mxCell>
        <mxCell id="KvOHSb_-tOUAyhextP7V-3" value="待采购" style="rounded=1;whiteSpace=wrap;html=1;" vertex="1" parent="1">
          <mxGeometry x="320" y="360" width="80" height="60" as="geometry" />
        </mxCell>
        <mxCell id="KvOHSb_-tOUAyhextP7V-17" style="edgeStyle=orthogonalEdgeStyle;rounded=0;orthogonalLoop=1;jettySize=auto;html=1;" edge="1" parent="1" source="KvOHSb_-tOUAyhextP7V-4" target="KvOHSb_-tOUAyhextP7V-16">
          <mxGeometry relative="1" as="geometry" />
        </mxCell>
        <mxCell id="KvOHSb_-tOUAyhextP7V-4" value="待比对库存" style="rounded=1;whiteSpace=wrap;html=1;" vertex="1" parent="1">
          <mxGeometry x="280" y="200" width="90" height="60" as="geometry" />
        </mxCell>
        <mxCell id="KvOHSb_-tOUAyhextP7V-12" style="edgeStyle=orthogonalEdgeStyle;rounded=0;orthogonalLoop=1;jettySize=auto;html=1;entryX=0;entryY=0.5;entryDx=0;entryDy=0;" edge="1" parent="1" source="KvOHSb_-tOUAyhextP7V-5" target="KvOHSb_-tOUAyhextP7V-4">
          <mxGeometry relative="1" as="geometry" />
        </mxCell>
        <mxCell id="KvOHSb_-tOUAyhextP7V-5" value="待处理" style="rounded=1;whiteSpace=wrap;html=1;" vertex="1" parent="1">
          <mxGeometry x="120" y="200" width="80" height="60" as="geometry" />
        </mxCell>
        <mxCell id="KvOHSb_-tOUAyhextP7V-32" style="edgeStyle=orthogonalEdgeStyle;rounded=0;orthogonalLoop=1;jettySize=auto;html=1;entryX=0.5;entryY=0;entryDx=0;entryDy=0;" edge="1" parent="1" source="KvOHSb_-tOUAyhextP7V-6" target="KvOHSb_-tOUAyhextP7V-7">
          <mxGeometry relative="1" as="geometry" />
        </mxCell>
        <mxCell id="KvOHSb_-tOUAyhextP7V-6" value="待发货" style="rounded=1;whiteSpace=wrap;html=1;" vertex="1" parent="1">
          <mxGeometry x="400" y="440" width="80" height="60" as="geometry" />
        </mxCell>
        <mxCell id="KvOHSb_-tOUAyhextP7V-45" style="edgeStyle=orthogonalEdgeStyle;rounded=0;orthogonalLoop=1;jettySize=auto;html=1;entryX=0.5;entryY=0;entryDx=0;entryDy=0;" edge="1" parent="1" source="KvOHSb_-tOUAyhextP7V-7" target="KvOHSb_-tOUAyhextP7V-44">
          <mxGeometry relative="1" as="geometry" />
        </mxCell>
        <mxCell id="KvOHSb_-tOUAyhextP7V-7" value="待签收" style="rounded=1;whiteSpace=wrap;html=1;" vertex="1" parent="1">
          <mxGeometry x="400" y="555" width="80" height="60" as="geometry" />
        </mxCell>
        <mxCell id="KvOHSb_-tOUAyhextP7V-11" style="edgeStyle=orthogonalEdgeStyle;rounded=0;orthogonalLoop=1;jettySize=auto;html=1;entryX=0;entryY=0.5;entryDx=0;entryDy=0;" edge="1" parent="1" source="KvOHSb_-tOUAyhextP7V-10" target="KvOHSb_-tOUAyhextP7V-5">
          <mxGeometry relative="1" as="geometry" />
        </mxCell>
        <mxCell id="KvOHSb_-tOUAyhextP7V-10" value="" style="ellipse;fillColor=strokeColor;html=1;" vertex="1" parent="1">
          <mxGeometry x="60" y="215" width="30" height="30" as="geometry" />
        </mxCell>
        <mxCell id="KvOHSb_-tOUAyhextP7V-15" value="" style="endArrow=none;html=1;rounded=0;entryX=0.5;entryY=1;entryDx=0;entryDy=0;entryPerimeter=0;" edge="1" parent="1" target="KvOHSb_-tOUAyhextP7V-1">
          <mxGeometry width="50" height="50" relative="1" as="geometry">
            <mxPoint x="240" y="230" as="sourcePoint" />
            <mxPoint x="460" y="260" as="targetPoint" />
          </mxGeometry>
        </mxCell>
        <mxCell id="KvOHSb_-tOUAyhextP7V-20" style="edgeStyle=orthogonalEdgeStyle;rounded=0;orthogonalLoop=1;jettySize=auto;html=1;entryX=0.5;entryY=0;entryDx=0;entryDy=0;" edge="1" parent="1" source="KvOHSb_-tOUAyhextP7V-16" target="KvOHSb_-tOUAyhextP7V-3">
          <mxGeometry relative="1" as="geometry" />
        </mxCell>
        <mxCell id="KvOHSb_-tOUAyhextP7V-21" style="edgeStyle=orthogonalEdgeStyle;rounded=0;orthogonalLoop=1;jettySize=auto;html=1;entryX=0.5;entryY=0;entryDx=0;entryDy=0;" edge="1" parent="1" source="KvOHSb_-tOUAyhextP7V-16" target="KvOHSb_-tOUAyhextP7V-2">
          <mxGeometry relative="1" as="geometry" />
        </mxCell>
        <mxCell id="KvOHSb_-tOUAyhextP7V-16" value="" style="rhombus;whiteSpace=wrap;html=1;" vertex="1" parent="1">
          <mxGeometry x="420" y="280" width="40" height="40" as="geometry" />
        </mxCell>
        <mxCell id="KvOHSb_-tOUAyhextP7V-18" value="比对库存" style="shape=note2;boundedLbl=1;whiteSpace=wrap;html=1;size=25;verticalAlign=top;align=center;" vertex="1" parent="1">
          <mxGeometry x="480" y="160" width="80" height="70" as="geometry" />
        </mxCell>
        <mxCell id="KvOHSb_-tOUAyhextP7V-19" value="" style="endArrow=none;html=1;rounded=0;entryX=0;entryY=0.5;entryDx=0;entryDy=0;entryPerimeter=0;" edge="1" parent="1" target="KvOHSb_-tOUAyhextP7V-18">
          <mxGeometry width="50" height="50" relative="1" as="geometry">
            <mxPoint x="440" y="230" as="sourcePoint" />
            <mxPoint x="340" y="180" as="targetPoint" />
          </mxGeometry>
        </mxCell>
        <mxCell id="KvOHSb_-tOUAyhextP7V-22" value="采购完成" style="shape=note2;boundedLbl=1;whiteSpace=wrap;html=1;size=25;verticalAlign=top;align=center;" vertex="1" parent="1">
          <mxGeometry x="240" y="410" width="70" height="70" as="geometry" />
        </mxCell>
        <mxCell id="KvOHSb_-tOUAyhextP7V-23" value="" style="endArrow=none;html=1;rounded=0;entryX=0.995;entryY=0.522;entryDx=0;entryDy=0;entryPerimeter=0;" edge="1" parent="1" target="KvOHSb_-tOUAyhextP7V-22">
          <mxGeometry width="50" height="50" relative="1" as="geometry">
            <mxPoint x="360" y="447" as="sourcePoint" />
            <mxPoint x="350" y="190" as="targetPoint" />
          </mxGeometry>
        </mxCell>
        <mxCell id="KvOHSb_-tOUAyhextP7V-24" value="生产完毕" style="shape=note2;boundedLbl=1;whiteSpace=wrap;html=1;size=25;verticalAlign=top;align=center;" vertex="1" parent="1">
          <mxGeometry x="570" y="410" width="70" height="70" as="geometry" />
        </mxCell>
        <mxCell id="KvOHSb_-tOUAyhextP7V-25" value="" style="endArrow=none;html=1;rounded=0;entryX=0;entryY=0.5;entryDx=0;entryDy=0;entryPerimeter=0;" edge="1" parent="1" target="KvOHSb_-tOUAyhextP7V-24">
          <mxGeometry width="50" height="50" relative="1" as="geometry">
            <mxPoint x="520" y="445" as="sourcePoint" />
            <mxPoint x="580" y="445" as="targetPoint" />
          </mxGeometry>
        </mxCell>
        <mxCell id="KvOHSb_-tOUAyhextP7V-26" value="库存不足" style="shape=note2;boundedLbl=1;whiteSpace=wrap;html=1;size=25;verticalAlign=top;align=center;" vertex="1" parent="1">
          <mxGeometry x="240" y="280" width="70" height="70" as="geometry" />
        </mxCell>
        <mxCell id="KvOHSb_-tOUAyhextP7V-27" value="" style="endArrow=none;html=1;rounded=0;entryX=0.998;entryY=0.53;entryDx=0;entryDy=0;entryPerimeter=0;" edge="1" parent="1" target="KvOHSb_-tOUAyhextP7V-26">
          <mxGeometry width="50" height="50" relative="1" as="geometry">
            <mxPoint x="360" y="317" as="sourcePoint" />
            <mxPoint x="370" y="210" as="targetPoint" />
          </mxGeometry>
        </mxCell>
        <mxCell id="KvOHSb_-tOUAyhextP7V-28" value="库存充足" style="shape=note2;boundedLbl=1;whiteSpace=wrap;html=1;size=25;verticalAlign=top;align=center;" vertex="1" parent="1">
          <mxGeometry x="570" y="280" width="70" height="70" as="geometry" />
        </mxCell>
        <mxCell id="KvOHSb_-tOUAyhextP7V-29" value="" style="endArrow=none;html=1;rounded=0;entryX=0;entryY=0.5;entryDx=0;entryDy=0;entryPerimeter=0;" edge="1" parent="1" target="KvOHSb_-tOUAyhextP7V-28">
          <mxGeometry width="50" height="50" relative="1" as="geometry">
            <mxPoint x="520" y="315" as="sourcePoint" />
            <mxPoint x="500" y="350" as="targetPoint" />
          </mxGeometry>
        </mxCell>
        <mxCell id="KvOHSb_-tOUAyhextP7V-35" value="签收成功" style="shape=note2;boundedLbl=1;whiteSpace=wrap;html=1;size=25;verticalAlign=top;align=center;" vertex="1" parent="1">
          <mxGeometry x="240" y="640" width="70" height="70" as="geometry" />
        </mxCell>
        <mxCell id="KvOHSb_-tOUAyhextP7V-36" value="" style="endArrow=none;html=1;rounded=0;entryX=1.002;entryY=0.495;entryDx=0;entryDy=0;entryPerimeter=0;" edge="1" parent="1" target="KvOHSb_-tOUAyhextP7V-35">
          <mxGeometry width="50" height="50" relative="1" as="geometry">
            <mxPoint x="360" y="675" as="sourcePoint" />
            <mxPoint x="370" y="210" as="targetPoint" />
          </mxGeometry>
        </mxCell>
        <mxCell id="KvOHSb_-tOUAyhextP7V-37" value="拒绝签收" style="shape=note2;boundedLbl=1;whiteSpace=wrap;html=1;size=25;verticalAlign=top;align=center;" vertex="1" parent="1">
          <mxGeometry x="570" y="640" width="70" height="70" as="geometry" />
        </mxCell>
        <mxCell id="KvOHSb_-tOUAyhextP7V-38" value="" style="endArrow=none;html=1;rounded=0;entryX=0;entryY=0.5;entryDx=0;entryDy=0;entryPerimeter=0;" edge="1" parent="1" target="KvOHSb_-tOUAyhextP7V-37">
          <mxGeometry width="50" height="50" relative="1" as="geometry">
            <mxPoint x="520" y="675" as="sourcePoint" />
            <mxPoint x="380" y="220" as="targetPoint" />
          </mxGeometry>
        </mxCell>
        <mxCell id="KvOHSb_-tOUAyhextP7V-39" value="发货完毕" style="shape=note2;boundedLbl=1;whiteSpace=wrap;html=1;size=25;verticalAlign=top;align=center;" vertex="1" parent="1">
          <mxGeometry x="520" y="500" width="70" height="70" as="geometry" />
        </mxCell>
        <mxCell id="KvOHSb_-tOUAyhextP7V-40" value="" style="endArrow=none;html=1;rounded=0;entryX=0;entryY=0.5;entryDx=0;entryDy=0;entryPerimeter=0;" edge="1" parent="1" target="KvOHSb_-tOUAyhextP7V-39">
          <mxGeometry width="50" height="50" relative="1" as="geometry">
            <mxPoint x="440" y="535" as="sourcePoint" />
            <mxPoint x="240" y="310" as="targetPoint" />
          </mxGeometry>
        </mxCell>
        <mxCell id="KvOHSb_-tOUAyhextP7V-41" value="" style="ellipse;html=1;shape=endState;fillColor=strokeColor;" vertex="1" parent="1">
          <mxGeometry x="345" y="750" width="30" height="30" as="geometry" />
        </mxCell>
        <mxCell id="KvOHSb_-tOUAyhextP7V-46" style="edgeStyle=orthogonalEdgeStyle;rounded=0;orthogonalLoop=1;jettySize=auto;html=1;entryX=0.5;entryY=0;entryDx=0;entryDy=0;" edge="1" parent="1" source="KvOHSb_-tOUAyhextP7V-44" target="KvOHSb_-tOUAyhextP7V-41">
          <mxGeometry relative="1" as="geometry">
            <mxPoint x="360" y="700" as="targetPoint" />
          </mxGeometry>
        </mxCell>
        <mxCell id="KvOHSb_-tOUAyhextP7V-47" style="edgeStyle=orthogonalEdgeStyle;rounded=0;orthogonalLoop=1;jettySize=auto;html=1;" edge="1" parent="1" source="KvOHSb_-tOUAyhextP7V-44" target="KvOHSb_-tOUAyhextP7V-5">
          <mxGeometry relative="1" as="geometry">
            <mxPoint x="520" y="700" as="targetPoint" />
            <Array as="points">
              <mxPoint x="520" y="660" />
              <mxPoint x="520" y="850" />
              <mxPoint x="160" y="850" />
            </Array>
          </mxGeometry>
        </mxCell>
        <mxCell id="KvOHSb_-tOUAyhextP7V-44" value="" style="rhombus;whiteSpace=wrap;html=1;" vertex="1" parent="1">
          <mxGeometry x="420" y="640" width="40" height="40" as="geometry" />
        </mxCell>
        <mxCell id="KvOHSb_-tOUAyhextP7V-48" value="客户签收" style="shape=note2;boundedLbl=1;whiteSpace=wrap;html=1;size=25;verticalAlign=top;align=center;" vertex="1" parent="1">
          <mxGeometry x="490" y="590" width="70" height="55" as="geometry" />
        </mxCell>
        <mxCell id="KvOHSb_-tOUAyhextP7V-49" value="" style="endArrow=none;html=1;rounded=0;entryX=0;entryY=0.5;entryDx=0;entryDy=0;entryPerimeter=0;" edge="1" parent="1" target="KvOHSb_-tOUAyhextP7V-48">
          <mxGeometry width="50" height="50" relative="1" as="geometry">
            <mxPoint x="440" y="625" as="sourcePoint" />
            <mxPoint x="300" y="170" as="targetPoint" />
          </mxGeometry>
        </mxCell>
      </root>
    </mxGraphModel>
  </diagram>
</mxfile>
